# xmcd CD database file
#
# Track frame offsets:
#	150
#	4799
#	16860
#	32511
#	45393
#	69361
#	87121
#	126001
#	135431
#	146856
#	165716
#	178230
#	196702
#	214521
#	233182
#	268309
#	291167
#	305020
#
# Disc length: 4265 seconds
#
# Revision: 0
# Processed by: cddbd v1.5.2PL0 Copyright (c) Steve Scherf et al.
# Submitted via: CDex 1.70beta2
#
DISCID=f710a712
DTITLE=Cash,Johnny - Tulsa, Oklahoma 27.10.1972
DYEAR=2010
DGENRE=Country
TTITLE0=Sunday Morning Coming Down
TTITLE1=Tennessee Flat Top Box
TTITLE2=Oney
TTITLE3=These Hands
TTITLE4=I Still Miss Someone - Me And Bobby McGee
TTITLE5=Orleans Parish Prison
TTITLE6=Help Me - Jesus Was A Carpenter
TTITLE7=Five Feet High And Rising
TTITLE8=That Silver Haired Daddy Of Mine w. Carl Perkins
TTITLE9=Orange Blossom Special
TTITLE10=Folsom Prison Blues
TTITLE11=I Walk The Line - Jackson w. June Carter
TTITLE12=If I Were A Carpenter
TTITLE13=Help Me Make It Through The Night
TTITLE14=Will The Circle Be Unbroken - Daddy Sang Bass
TTITLE15=I See Men A Trees Walking - Last Supper
TTITLE16=Peace In The Valley
TTITLE17=A Thing Called Love
EXTD=YEAR: 2010
EXTT0=
EXTT1=
EXTT2=
EXTT3=
EXTT4=
EXTT5=
EXTT6=
EXTT7=
EXTT8=
EXTT9=
EXTT10=
EXTT11=
EXTT12=
EXTT13=
EXTT14=
EXTT15=
EXTT16=
EXTT17=
PLAYORDER=
